Coordinates
version=1
nRows=5
nColumns=40
inDegrees=yes

Units are S.I. units (second, meters, Newtons, ...)
Angles are in degrees.

endheader
time	pelvis_tilt	pelvis_list	pelvis_rotation	pelvis_tx	pelvis_ty	pelvis_tz	hip_flexion_r	hip_adduction_r	hip_rotation_r	knee_angle_r	knee_angle_r_beta	ankle_angle_r	subtalar_angle_r	mtp_angle_r	hip_flexion_l	hip_adduction_l	hip_rotation_l	knee_angle_l	knee_angle_l_beta	ankle_angle_l	subtalar_angle_l	mtp_angle_l	lumbar_extension	lumbar_bending	lumbar_rotation	arm_flex_r	arm_add_r	arm_rot_r	elbow_flex_r	pro_sup_r	wrist_flex_r	wrist_dev_r	arm_flex_l	arm_add_l	arm_rot_l	elbow_flex_l	pro_sup_l	wrist_flex_l	wrist_dev_l
     41.13000000	     -4.84837394	     -4.87882447	      0.93960913	      0.90408593	      0.92444117	      0.48300711	     15.26797619	      3.30092628	    -11.98886805	     21.48761347	     21.48761347	     12.33604200	     -5.19288783	     -1.77599875	     24.40113391	    -11.29049389	      2.32043161	     67.01525023	     67.01525023	      1.08815539	    -16.56544860	      5.21414435	     -8.96255653	      3.66000431	     -0.44956745	      6.52010558	    -20.13053392	      1.90874647	     77.16748147	     45.16688062	      0.00000000	      0.00000000	      2.96506068	     -8.59982383	     -7.58549787	     24.81003895	     45.45025954	      0.00000000	      0.00000000
     41.14364286	     -4.99677049	     -4.86559518	      1.25137772	      0.90275642	      0.92485635	      0.48370550	     14.71800974	      3.39091903	    -12.11353080	     20.93966448	     20.93966448	     12.53959481	     -5.21969571	     -1.67361034	     26.43025611	    -11.05785641	      2.72010487	     67.36184148	     67.36184148	      1.48412097	    -17.22782837	      5.37762460	     -8.95643433	      3.62743768	     -0.31248402	      8.58599077	    -20.16528262	      1.69492827	     79.01502969	     45.12356380	      0.00000000	      0.00000000	      2.05229464	     -8.18230848	     -7.48866079	     24.36184015	     45.42622191	      0.00000000	      0.00000000
     41.15728571	     -5.07815822	     -4.76732358	      1.56166950	      0.90144739	      0.92532825	      0.48431848	     14.12340940	      3.37390390	    -12.24728845	     20.45664977	     20.45664977	     12.78204721	     -5.18002922	     -1.55587108	     28.33454853	    -10.72125637	      3.01428681	     67.53446113	     67.53446113	      2.44661560	    -17.58012515	      7.11011004	     -9.13184276	      3.52959313	     -0.05294434	     10.19092087	    -20.75650588	      2.19526955	     82.65942957	     45.00443784	      0.00000000	      0.00000000	      0.94601692	     -7.81152385	     -7.25489647	     24.72803460	     45.39469952	      0.00000000	      0.00000000
     41.17092857	     -5.18658421	     -4.71656139	      1.89664549	      0.90016941	      0.92576218	      0.48488884	     13.49841065	      3.42467905	    -12.40016395	     19.84430446	     19.84430446	     12.97274057	     -5.14201293	     -1.43907159	     30.14065137	    -10.44815645	      3.22696689	     67.27633183	     67.27633183	      3.06876557	    -18.01120295	      7.98577151	     -9.19909471	      3.47443177	      0.02867281	     12.28718606	    -20.67594346	      1.87251823	     84.70623321	     44.96309487	      0.00000000	      0.00000000	     -0.07495026	     -7.47675734	     -7.04511255	     24.67192741	     45.35244169	      0.00000000	      0.00000000
     41.18457143	     -5.31092230	     -4.68318719	      2.24822102	      0.89885654	      0.92614902	      0.48534319	     12.90240980	      3.48603793	    -12.58184363	     19.23201635	     19.23201635	     13.11657508	     -5.10060551	     -1.31820817	     31.85776358	    -10.16498108	      3.38835261	     66.59096461	     66.59096461	      3.74518740	    -18.36446689	      8.91006326	     -9.28750839	      3.43103809	      0.23513327	     14.29038586	    -20.74194236	      1.63930908	     86.70018689	     44.91963656	      0.00000000	      0.00000000	     -1.01556455	     -7.14024049	     -6.86323671	     24.74226484	     45.31114785	      0.00000000	      0.00000000
